<?xml version="1.0" encoding="UTF-8" standalone="no"?>
<svg xmlns:rdf="http://www.w3.org/1999/02/22-rdf-syntax-ns#" xmlns="http://www.w3.org/2000/svg" xml:space="preserve" height="66.181" viewBox="0 0 154.89937 66.180679" width="154.9" version="1.1" xmlns:cc="http://creativecommons.org/ns#" xmlns:dc="http://purl.org/dc/elements/1.1/"><g transform="matrix(1.25 0 0 -1.25 -314.83 256.65)"><g transform="translate(.43352 .28901)"><g fill="#003758"><path d="m277.13 161.23 0.0164 0.001c-0.13106 0.17054-0.17809 0.1561-0.25842 0.2395-0.0555 0.0556 0.18179 0.11869 0.0951 0.28442-0.12367 0.23736 0.12313 0.35979 0.12154 0.44853-0.003 0.14702-0.14057 0.14969-0.24521 0.30473-0.0528 0.0781 0.10517 0.363-0.074 0.39133v0.004c-0.19078-0.0225-0.0275-0.31435-0.0809-0.39294-0.10516-0.15557-0.24045-0.15931-0.24415-0.30526-0.003-0.0898 0.24415-0.21171 0.12049-0.44747-0.0867-0.16626 0.15114-0.23041 0.0962-0.28655-0.0819-0.0823-0.12894-0.0679-0.25947-0.23897l0.0449-0.003-3.8145 0.008v2.2229l0.65424 1.2088h-1.0712l0.0174 11.28 0.6553 1.213h-0.6553l0.008 2.0689h0.003c-0.001 0.001-0.001 0.002-0.003 0.004-0.12842 0.16627-0.17387 0.15557-0.25525 0.2363-0.055 0.0551 0.18179 0.12029 0.0951 0.28655-0.12366 0.23362 0.12419 0.35765 0.12155 0.4464-0.005 0.14755-0.14005 0.14969-0.24521 0.30526-0.0523 0.0786 0.10516 0.36193-0.075 0.39133v0.004c-0.18972-0.0224-0.0264-0.31274-0.0793-0.39293-0.10464-0.15557-0.24151-0.15771-0.24521-0.3058-0.001-0.0887 0.24521-0.2117 0.12102-0.4464-0.0872-0.16573 0.15008-0.23041 0.0962-0.28655-0.0803-0.0813-0.12895-0.0679-0.25789-0.2379l-1.3687-0.002-0.009 1.9091-10.301 0.002 0.01-1.9112h-1.8877c-0.1263 0.16573-0.17545 0.15504-0.25525 0.2363-0.0555 0.0551 0.18232 0.11975 0.0951 0.28601-0.12314 0.23362 0.12313 0.35819 0.12154 0.4464-0.004 0.14809-0.14057 0.14969-0.24468 0.30579-0.0534 0.0775 0.10464 0.36193-0.074 0.39134v0.003c-0.19078-0.0219-0.028-0.31222-0.0814-0.39241-0.10411-0.1561-0.23992-0.15824-0.24362-0.30633-0.003-0.0882 0.24362-0.21117 0.11996-0.4464-0.0867-0.16519 0.15114-0.22988 0.0967-0.28601-0.0819-0.0813-0.12947-0.0679-0.25895-0.2379h-0.001l0.01-2.0711h-0.65795l0.65795-1.221v-11.272h-1.0369l0.66482-1.2232v-2.2133l-3.6776-0.005 0.0602 0.003c-0.12895 0.16894-0.17651 0.15664-0.25842 0.23897-0.0544 0.0556 0.18338 0.11975 0.0962 0.28655-0.12313 0.23362 0.12313 0.35712 0.12155 0.44586-0.004 0.14755-0.14005 0.14916-0.24468 0.30526-0.0523 0.0781 0.10463 0.363-0.074 0.39187v0.004c-0.1913-0.0219-0.0269-0.31381-0.0808-0.39347-0.10517-0.15557-0.24046-0.15824-0.24521-0.30419-0.001-0.0904 0.24521-0.21224 0.12154-0.44854-0.0867-0.16572 0.15115-0.22988 0.0957-0.28494-0.0809-0.0834-0.12895-0.0674-0.25842-0.24058l0.0777-0.004-0.76258 0.0102 0.66481-1.2152-0.007-2.6805 24.595 0.0102 0.002 2.6677 0.65636 1.2178-0.64103-0.008z"/><path d="m270.6 188.71-1.0733 1.0259c-0.66851 4.7986-8.8513 4.5944-8.8513-0.0577l-1.0812-0.72386 0.97819-0.94626-0.24838-6.5618v-0.34589l9.4294-0.0599-0.21403 6.6334 1.0606 1.0361z"/><path d="m266.81 196.57-0.38684 0.25608c-0.0898 0.82062-0.5496 1.22-1.1124 1.2996h0.003l-0.20716 6.3875-0.27586-6.3875h0.0317c-0.59611-0.0775-1.1156-0.48703-1.1156-1.3338l-0.40692-0.23469 0.38261-0.2812-0.0819-2.7655v-0.13526l0.8445 0.19032 1.1547-0.002 0.83656-0.2395-0.0528 2.9569 0.38684 0.2935v-0.004z"/></g><path d="m253.27 160.38 22.995-0.004-0.23252-0.27906h-22.513l-0.24996 0.28334z" fill="#fff"/><path d="m253.27 160.38 22.995-0.004-0.23252-0.27906h-22.513l-0.24996 0.28334z" stroke="#fff" stroke-width=".086639" fill="none"/><path d="m257.48 163.74 14.558-0.003-0.14638-0.27853h-14.252l-0.1596 0.28174z" fill="#fff"/><path d="m257.48 163.74 14.558-0.003-0.14638-0.27853h-14.252l-0.1596 0.28174z" stroke="#fff" stroke-width=".086639" fill="none"/><path d="m259.99 180.83 10.016-0.002-0.0999-0.19085h-9.8083l-0.10781 0.19299z" fill="#fff"/><path d="m259.99 180.83 10.016-0.002-0.0999-0.19085h-9.8083l-0.10781 0.19299z" stroke="#fff" stroke-width=".086639" fill="none"/><g fill="#fff"><path d="m267.8 170.37c0-1.5653-1.3117-2.834-2.9282-2.834-1.6171 0-2.9293 1.2686-2.9293 2.834 0 1.5648 1.3122 2.834 2.9293 2.834 1.6166 0 2.9282-1.2692 2.9282-2.834"/><path d="m264.09 182.28h1.8227v4.9334c0 1.1259-1.6108 1.3028-1.7165-0.10318l-0.10622-4.8302z"/><path d="m261.02 181.7 1.5442 0.42715v4.9339c0 1.1248-1.3666 0.92487-1.4554-0.50467l-0.0888-4.8564z"/><path d="m267.68 182.21 1.4004-0.33253-0.1057 4.4469c0 1.1254-1.2371 2.0283-1.3185 0.66987l0.0238-4.7842z"/><path d="m264.79 194.1h0.53375l-0.0201 1.445c-0.005 0.33038-0.47721 0.38224-0.50257-0.0305l-0.0111-1.4146z"/><path d="m263.87 193.93 0.45184 0.1267v1.4445c0 0.33093-0.39952 0.27105-0.42647-0.14808l-0.0254-1.4231z"/><path d="m265.82 194.08 0.40956-0.0968-0.0312 1.3018c0 0.33092-0.36253 0.59395-0.38684 0.1962l0.008-1.4012z"/></g><path d="m264.78 172.24-0.37415-1.9476 2.5018-0.86018-2.0726 1.1195-0.055 1.6883z" fill="#003758"/><path d="m260.54 189.7 2.2254 1.0842 3.5518 0.0347 2.5144-0.58379 0.76627-0.43517" stroke="#fff" stroke-width=".21580" fill="none"/><path d="m262.88 189.31c-0.0206-0.003-2.3691-0.8126-2.3691-0.8126l-0.01-0.38599 0.13423 0.30366 2.2692 0.75914c0-0.004 3.3352 0.0813 3.3352 0.0813 0-0.003 2.5366-0.58219 2.5409-0.58326 0-0.007 0.72189-0.63137 0.72189-0.63137l0.12102-0.2641-0.006 0.29885-0.77474 0.71691c-0.0301 0.016-2.5884 0.5993-2.5884 0.5993-0.019 0.002-3.3743-0.0818-3.3743-0.0818" fill="#fff"/><path d="m262.88 189.31c-0.0206-0.003-2.3691-0.8126-2.3691-0.8126l-0.01-0.38599 0.13423 0.30366 2.2692 0.75914c0-0.004 3.3352 0.0813 3.3352 0.0813 0-0.003 2.5366-0.58219 2.5409-0.58326 0-0.007 0.72189-0.63137 0.72189-0.63137l0.12102-0.2641-0.006 0.29885-0.77474 0.71691c-0.0301 0.016-2.5884 0.5993-2.5884 0.5993-0.019 0.002-3.3743-0.0818-3.3743-0.0818z" stroke="#fff" stroke-width=".17434" fill="none"/><path d="m257.28 175.35h14.948v0.54209h-14.948l0.00053-0.54209z" fill="#fff"/><path d="m257.28 175.35h14.948v0.54209h-14.948l0.00053-0.54209z" stroke="#fff" stroke-width=".086639" fill="none"/><path d="m6.7676 35.709v0.33008h1.1016v-0.33008h-1.1016zm2.2012 0v0.33008h1.0996v-0.33008h-1.0996zm2.2129 0v0.33008h1.1016v-0.33008h-1.1016zm2.1992 0v0.33008h1.1016v-0.33008h-1.1016zm2.2148 0v0.33008h1.0996v-0.33008h-1.0996zm2.1934 0v0.33008h1.0996v-0.33008h-1.0996zm2.1914 0v0.33008h1.1016v-0.33008h-1.1016zm2.1992 0v0.33008h1.1016v-0.33008h-1.1016zm2.2148 0v0.33008h1.0996v-0.33008h-1.0996z" transform="matrix(.8 0 0 -.8 251.86 204.52)" fill="#003758"/><g fill="#fff"><path d="m258.56 177.23h-0.25261v1.6102h0.25261v-1.6102z"/><path d="m259.35 177.23h-0.25261v1.6102h0.25261v-1.6102z"/><path d="m260.14 177.23h-0.25261v1.6102h0.25261v-1.6102z"/><path d="m260.93 177.23h-0.2526v1.6102h0.2526v-1.6102z"/><path d="m261.72 177.23h-0.2526v1.6102h0.2526v-1.6102z"/><path d="m262.51 177.23h-0.25208v1.6102h0.25208v-1.6102z"/><path d="m263.3 177.23h-0.25261v1.6102h0.25261v-1.6102z"/><path d="m264.09 177.23h-0.25208v1.6102h0.25208v-1.6102z"/><path d="m265.66 177.23h-0.25155v1.6102h0.25155v-1.6102z"/><path d="m266.46 177.23h-0.2526v1.6102h0.2526v-1.6102z"/><path d="m267.25 177.23h-0.25208v1.6102h0.25208v-1.6102z"/><path d="m268.04 177.23h-0.25208v1.6102h0.25208v-1.6102z"/><path d="m268.82 177.23h-0.25155v1.6102h0.25155v-1.6102z"/><path d="m269.62 177.23h-0.25261v1.6102h0.25261v-1.6102z"/><path d="m270.41 177.23h-0.25208v1.6102h0.25208v-1.6102z"/><path d="m271.2 177.23h-0.25103v1.6102h0.25103v-1.6102z"/></g><path d="m289.71 169.73h84.605" stroke="#e51636" stroke-width=".52037" fill="none"/><path d="m47.439 22.213-0.02344 0.73047 1.8164 0.22656v16.129l-1.793 0.27734v0.67969l2.9863-0.05078 2.8203 0.05078v-0.67969l-1.743-0.326v-7.3613h9.541v7.4102l-1.7441 0.27734v0.67969l2.9629-0.05078 2.8203 0.05078v-0.67969l-1.7207-0.32617v-16.08l1.6973-0.22656v-0.73047l-2.8438 0.04883-2.916-0.04883-0.02344 0.73047 1.7676 0.22656v7.5859h-9.541v-7.5859l1.7207-0.22656v-0.73047l-2.8438 0.04883-2.9395-0.04883zm27.441 0.07422c-4.9055 0-8.0039 3.9364-8.0039 9.084s3.0984 9.0586 8.0039 9.0586c4.8824 0 7.9805-3.911 7.9805-9.0586s-3.0981-9.084-7.9805-9.084zm8.168 0.22266-0.02344 0.71875 1.6191 0.41992 4.4824 16.559h1.0566l4.8594-14.602 5.0215 14.602h1.0098l4.084-16.533 1.6211-0.34766v-0.76758l-2.4434 0.05078-2.7461-0.05078v0.71875l2.207 0.32031v0.19922l-2.8164 12.623-4.7402-13.885h-1.4082l-4.4609 13.811-3.2637-12.498 0.02539-0.22461 1.877-0.27344v-0.81445l-3.1211 0.02344-2.8398-0.04883zm29.277 0.02539-3.8672 11.262c-1.0266 3.0199-2.0781 5.5684-2.0781 5.5684l-1.4824 0.22266v0.66797l2.2695-0.04883 2.5547 0.04883v-0.66797l-1.8379-0.27148s0.5009-1.7084 1.3848-4.3574h6.377l1.4805 4.3574-1.7441 0.27148v0.66797l2.8418-0.04883 2.8184 0.04883v-0.66797l-1.5742-0.32031-5.8047-16.732h-1.3379zm9.6758 0-0.0254 0.71875 1.7832 0.22266v15.84l-1.7598 0.27148v0.66797l2.9356-0.04883 2.791 0.04883v-0.66797l-1.7363-0.32031v-7.5254h4.2188c1.7598 0 2.5352 1.855 2.5352 3.3652v1.2129c0 2.4746 0.75102 4.0352 2.3477 4.0352 1.1738 0 1.8311-0.61901 2.3457-1.6094l-0.44531-0.32031c-0.23452 0.56802-0.49293 0.86524-0.89258 0.86524-0.67974 0-1.125-0.81763-1.125-2.9941v-1.1641c0-2.0536-1.199-3.713-3.8281-3.7871l-0.0918-0.42188c2.347-0.47046 4.084-1.5814 4.084-4.0566 0-2.524-2.2079-4.332-6.3379-4.332h-6.7988zm16.588 0-0.0449 0.7168 1.7812 0.22266v15.842l-1.7363 0.27148v0.66797l2.9102-0.04883h3.498c4.9748 0 8.8027-3.1445 8.8027-9.0586 0-4.6043-3.2162-8.6133-8.8027-8.6133h-6.4082zm-63.709 0.86524c3.9199 0 5.3047 3.4666 5.3047 7.9707 0 4.5308-1.3848 7.9707-5.3047 7.9707-3.9192 0-5.3047-3.4399-5.3047-7.9707 0-4.5041 1.3854-7.9707 5.3047-7.9707zm51.109 0.15039h2.6465c3.1688-0.02473 4.1309 1.7567 4.1309 3.3906 0 1.8063-1.009 3.9355-4.623 3.8613h-2.1543v-7.252zm18.586 0c4.9768-0.02539 6.7363 4.2317 6.7363 7.6719 0 3.5879-1.29 8.0938-6.5 7.9941l-2.2324-0.02344v-15.619l1.9961-0.02344zm-32.105 1.9785 2.7695 8.2422h-5.541l2.7715-8.2422zm6.8984 20.975c-1.6832 0-3.5215 1.1786-3.5215 3.1406 0 1.4054 0.73882 2.6048 3.3144 3.8203 1.2194 0.64086 2.8516 1.3172 2.8516 2.8262 0 1.3546-0.92798 2.2578-2.3535 2.2578-1.9573 0-2.784-1.0069-3.0918-3.0391l-0.70508 0.01758v3.5078h0.5332l0.29297-1.0078c0.63549 0.6422 1.5965 1.1973 2.9863 1.1973 1.9765 0 3.7441-1.3017 3.7441-3.5918 0-1.4762-1.0797-2.5868-3.2266-3.7148-1.4949-0.81595-3.0586-1.3356-3.0586-2.6367 0-1.2664 0.70595-2.1172 2.2676-2.1172 1.3918 0 2.5933 0.88395 2.8516 2.8105h0.66992v-3.332h-0.60156l-0.27344 0.93555c-0.37851-0.4317-1.3757-1.0742-2.6797-1.0742zm22.582 0.12109v0.46875l1.082 0.22461 3.623 6.5957v4.5137l-1.2539 0.18945v0.4668l2.1133-0.0332 2.0625 0.0332v-0.4668l-1.2558-0.22461v-4.4785l3.5898-6.5781 1.0996-0.22461v-0.48633l-1.4434 0.0332-1.9902-0.0332v0.48633l1.166 0.18945v0.24219l-2.8848 5.502-2.9375-5.5859v-0.17383l1.0996-0.19141v-0.46875l-2.0957 0.0332-1.9746-0.0332zm-62.379 0.01758v0.46875l1.1855 0.22461 4.1914 11.715h0.89258l4.1738-11.715 1.1855-0.22461v-0.46875l-1.5469 0.03516-1.8379-0.03516v0.46875l1.2539 0.18945-3.2617 9.5645-3.3672-9.5645 1.2539-0.18945v-0.46875l-2.0449 0.03516-2.0781-0.03516zm-32.068 0.01563-0.01563 0.51367 1.2871 0.15625v8.0859c0 2.5895 2.1479 3.8574 4.3965 3.8574 2.7487 0 4.6895-1.3201 4.6895-4.0332v-7.9102l1.2715-0.15625-0.01758-0.51367-1.6152 0.05469-1.7344-0.05469v0.51367l1.2539 0.15625v7.875c0 2.1144-1.3043 3.082-3.3145 3.082-2.0267 0-3.2793-0.91618-3.2793-2.9062v-8.0508l1.2344-0.15625v-0.51367l-2.1445 0.05469-2.0117-0.05469zm12.951 0-0.01758 0.50586c0.70352 0.10291 1.4434 0.11994 1.4434 1.0742v5.4844c0 3.1589-0.10352 4.7051-0.10352 4.7051l-1.3223 0.18945v0.46875l1.9746-0.03516 1.7871 0.03516v-0.46875l-1.3223-0.22461s-0.13867-1.6668-0.13867-4.6699v-4.373l7.4199 9.7012h1.1348v-7.375c0-2.3429 0.13672-4.3574 0.13672-4.3574l1.2715-0.18945v-0.4707l-1.9414 0.03516-1.9238-0.03516v0.4707l1.4766 0.22461s0.12109 1.9442 0.12109 4.2871v5.0332l-7.5234-9.9609-2.4727-0.05469zm13.895 0-0.01758 0.50586 1.3066 0.1543v11.109l-1.2891 0.18945v0.46875l2.1641-0.03516 2.0273 0.03516v-0.46875l-1.2539-0.22461v-11.074l1.2363-0.1543v-0.50586l-2.043 0.05469-2.1309-0.05469zm17.637 0-0.01758 0.50586 1.3047 0.1543v11.109l-1.2871 0.18945v0.46875l2.1465-0.03516h7.3672l0.34375-3.1758-0.65234-0.01563-0.11914 0.43164c-0.32765 1.1294-1.3407 2.0664-2.9043 2.0664h-3.2617v-5.207h0.78906c1.2366-0.01671 2.1309 0.34625 2.1309 1.3359v0.34766h0.53125v-4.0273h-0.53125v0.34766c0 1.0057-0.91052 1.3371-2.1465 1.3184h-0.77344v-5.1016h2.6953c1.631-0.0167 2.3717 1.0252 2.6465 2.1172l0.10156 0.41797h0.65234l-0.0508-3.248h-8.9648zm11.715 0-0.0176 0.50586 1.3047 0.1543v11.109l-1.2871 0.18945v0.46875l2.1465-0.03516 2.043 0.03516v-0.46875l-1.2695-0.22461v-5.2754h2.627c1.2881 0 1.8555 1.3008 1.8555 2.3594v0.84961c0 1.7362 0.54954 2.8301 1.7168 2.8301 0.85943 0 1.3409-0.43592 1.7188-1.1289l-0.32812-0.22461c-0.17043 0.39829-0.35971 0.60742-0.65235 0.60742-0.49808 0-0.82421-0.57325-0.82421-2.1016v-0.81641c0-1.4408-0.87588-2.6008-2.7988-2.6543l-0.0684-0.29492c1.7175-0.33011 2.9883-1.1096 2.9883-2.8457 0-1.7696-1.6158-3.0391-4.6387-3.0391h-4.5156zm21.938 0-0.0195 0.50586 1.3047 0.1543v11.109l-1.2852 0.18945v0.46875l2.1621-0.03516 2.0273 0.03516v-0.46875l-1.2539-0.22461v-11.074l1.2363-0.1543v-0.50586l-2.043 0.05469-2.1289-0.05469zm5.4922 0-0.18945 3.2285h0.66992l0.17383-0.51953c0.3772-1.1461 0.94268-1.9953 2.3867-1.9785h1.1836v11.039l-1.2188 0.15625v0.50195l2.1113-0.05078 2.0449 0.05078 0.0156-0.50195-1.2871-0.15625v-11.039h1.082c1.4592-0.01671 2.0254 0.83245 2.3867 1.9785l0.17188 0.51953h0.65234l-0.1875-3.2285h-9.9961zm-24.51 0.71289h1.4766c2.3193-0.01671 3.0234 1.2322 3.0234 2.377 0 1.267-0.73783 2.7611-3.3828 2.709h-1.1172v-5.0859zm-59.191-25.158l-0.02344 0.73047 1.8164 0.22656v16.129l-1.793 0.27734v0.67969l2.9863-0.05078 2.8203 0.05078v-0.67969l-1.7441-0.32617v-7.3613h9.541v7.4102l-1.7441 0.27734v0.67969l2.9629-0.05078 2.8203 0.05078v-0.67969l-1.7207-0.32617v-16.08l1.6973-0.22656v-0.73047l-2.8438 0.04883-2.916-0.04883-0.02344 0.73047 1.7676 0.22656v7.5859h-9.541v-7.5859l1.7207-0.22656v-0.73047l-2.8438 0.04883-2.9395-0.04883zm27.441 0.07422c-4.9055 0-8.0039 3.9364-8.0039 9.084s3.0984 9.0586 8.0039 9.0586c4.8824 0 7.9805-3.911 7.9805-9.0586s-3.0981-9.084-7.9805-9.084zm8.168 0.22266-0.02344 0.71875 1.6191 0.41992 4.4824 16.559h1.0566l4.8594-14.602 5.0215 14.602h1.0098l4.084-16.533 1.6211-0.34766v-0.76758l-2.4434 0.05078-2.7461-0.05078v0.71875l2.207 0.32031v0.19922l-2.8164 12.623-4.7402-13.885h-1.4082l-4.4609 13.811-3.2637-12.498 0.02539-0.22461 1.877-0.27344v-0.81445l-3.1211 0.02344-2.8398-0.04883zm29.277 0.02539-3.8672 11.262c-1.0266 3.0199-2.0781 5.5684-2.0781 5.5684l-1.4824 0.22266v0.66797l2.2695-0.04883 2.5547 0.04883v-0.66797l-1.8379-0.27148s0.5009-1.7084 1.3848-4.3574h6.377l1.4805 4.3574-1.7441 0.27148v0.66797l2.8418-0.04883 2.8184 0.04883v-0.66797l-1.5742-0.32031-5.8047-16.732h-1.3379zm9.6758 0-0.0254 0.71875 1.7832 0.22266v15.84l-1.7598 0.27148v0.66797l2.9356-0.04883 2.791 0.04883v-0.66797l-1.7363-0.32031v-7.5254h4.2188c1.7598 0 2.5352 1.855 2.5352 3.3652v1.2129c0 2.4746 0.75102 4.0352 2.3477 4.0352 1.1738 0 1.8311-0.61901 2.3457-1.6094l-0.44531-0.32031c-0.23452 0.56802-0.49293 0.86524-0.89258 0.86524-0.67974 0-1.125-0.81763-1.125-2.9941v-1.1641c0-2.0536-1.199-3.713-3.8281-3.7871l-0.0918-0.42188c2.347-0.47046 4.084-1.5814 4.084-4.0566 0-2.524-2.2079-4.332-6.3379-4.332h-6.7988zm16.588 0-0.0449 0.7168 1.7812 0.22266v15.842l-1.7363 0.27148v0.66797l2.9102-0.04883h3.498c4.9748 0 8.8027-3.1445 8.8027-9.0586 0-4.6043-3.2162-8.6133-8.8027-8.6133h-6.4082zm-63.709 0.86524c3.9199 0 5.3047 3.4666 5.3047 7.9707 0 4.5308-1.3848 7.9707-5.3047 7.9707-3.9192 0-5.3047-3.4399-5.3047-7.9707 0-4.5041 1.3854-7.9707 5.3047-7.9707zm51.109 0.15039h2.6465c3.1688-0.02473 4.1309 1.7567 4.1309 3.3906 0 1.8063-1.009 3.9355-4.623 3.8613h-2.1543v-7.252zm18.586 0c4.9768-0.02539 6.7363 4.2317 6.7363 7.6719 0 3.5879-1.29 8.0938-6.5 7.9941l-2.2324-0.02344v-15.619l1.9961-0.02344zm-32.105 1.9785 2.7695 8.2422h-5.541l2.7715-8.2422zm6.8984 20.975c-1.6832 0-3.5215 1.1786-3.5215 3.1406 0 1.4054 0.73882 2.6048 3.3144 3.8203 1.2194 0.64086 2.8516 1.3172 2.8516 2.8262 0 1.3546-0.92798 2.2578-2.3535 2.2578-1.9573 0-2.784-1.0069-3.0918-3.0391l-0.70508 0.01758v3.5078h0.5332l0.29297-1.0078c0.63549 0.6422 1.5965 1.1973 2.9863 1.1973 1.9765 0 3.7441-1.3017 3.7441-3.5918 0-1.4762-1.0797-2.5868-3.2266-3.7148-1.4949-0.81595-3.0586-1.3356-3.0586-2.6367 0-1.2664 0.70595-2.1172 2.2676-2.1172 1.3918 0 2.5933 0.88395 2.8516 2.8105h0.66992v-3.332h-0.60156l-0.27344 0.93555c-0.37851-0.4317-1.3757-1.0742-2.6797-1.0742zm22.582 0.12109v0.46875l1.082 0.22461 3.623 6.5957v4.5137l-1.2539 0.18945v0.4668l2.1133-0.0332 2.0625 0.0332v-0.4668l-1.2558-0.22461v-4.4785l3.5898-6.5781 1.0996-0.22461v-0.48633l-1.4434 0.0332-1.9902-0.0332v0.48633l1.166 0.18945v0.24219l-2.8848 5.502-2.9375-5.5859v-0.17383l1.0996-0.19141v-0.46875l-2.0957 0.0332-1.9746-0.0332zm-62.379 0.01758v0.46875l1.1855 0.22461 4.1914 11.715h0.89258l4.1738-11.715 1.1855-0.22461v-0.46875l-1.5469 0.03516-1.8379-0.03516v0.46875l1.2539 0.18945-3.2617 9.5645-3.3672-9.5645 1.2539-0.18945v-0.46875l-2.0449 0.03516-2.0781-0.03516zm-32.068 0.01563-0.01563 0.51367 1.2871 0.15625v8.0859c0 2.5895 2.1479 3.8574 4.3965 3.8574 2.7487 0 4.6895-1.3201 4.6895-4.0332v-7.9102l1.2715-0.15625-0.01758-0.51367-1.6152 0.05469-1.7344-0.05469v0.51367l1.2539 0.15625v7.875c0 2.1144-1.3043 3.082-3.3145 3.082-2.0267 0-3.2793-0.91618-3.2793-2.9062v-8.0508l1.2344-0.15625v-0.51367l-2.1445 0.05469-2.0117-0.05469zm12.951 0-0.01758 0.50586c0.70352 0.10291 1.4434 0.11994 1.4434 1.0742v5.4844c0 3.1589-0.10352 4.7051-0.10352 4.7051l-1.3223 0.18945v0.46875l1.9746-0.03516 1.7871 0.03516v-0.46875l-1.3223-0.22461s-0.13867-1.6668-0.13867-4.6699v-4.373l7.4199 9.7012h1.1348v-7.375c0-2.3429 0.13672-4.3574 0.13672-4.3574l1.2715-0.18945v-0.4707l-1.9414 0.03516-1.9238-0.03516v0.4707l1.4766 0.22461s0.12109 1.9442 0.12109 4.2871v5.0332l-7.5234-9.9609-2.4727-0.05469zm13.895 0-0.01758 0.50586 1.3066 0.1543v11.109l-1.2891 0.18945v0.46875l2.1641-0.03516 2.0273 0.03516v-0.46875l-1.2539-0.22461v-11.074l1.2363-0.1543v-0.50586l-2.043 0.05469-2.1309-0.05469zm17.637 0-0.01758 0.50586 1.3047 0.1543v11.109l-1.2871 0.18945v0.46875l2.1465-0.03516h7.3672l0.34375-3.1758-0.65234-0.01563-0.11914 0.43164c-0.32765 1.1294-1.3407 2.0664-2.9043 2.0664h-3.2617v-5.207h0.78906c1.2366-0.01671 2.1309 0.34625 2.1309 1.3359v0.34766h0.53125v-4.0273h-0.53125v0.34766c0 1.0057-0.91052 1.3371-2.1465 1.3184h-0.77344v-5.1016h2.6953c1.631-0.0167 2.3717 1.0252 2.6465 2.1172l0.10156 0.41797h0.65234l-0.0508-3.248h-8.9648zm11.715 0-0.0176 0.50586 1.3047 0.1543v11.109l-1.2871 0.18945v0.46875l2.1465-0.03516 2.043 0.03516v-0.46875l-1.2695-0.22461v-5.2754h2.627c1.2881 0 1.8555 1.3008 1.8555 2.3594v0.84961c0 1.7362 0.54954 2.8301 1.7168 2.8301 0.85943 0 1.3409-0.43592 1.7188-1.1289l-0.32812-0.22461c-0.17043 0.39829-0.35971 0.60742-0.65235 0.60742-0.49808 0-0.82421-0.57325-0.82421-2.1016v-0.81641c0-1.4408-0.87588-2.6008-2.7988-2.6543l-0.0684-0.29492c1.7175-0.33011 2.9883-1.1096 2.9883-2.8457 0-1.7696-1.6158-3.0391-4.6387-3.0391h-4.5156zm21.938 0-0.0195 0.50586 1.3047 0.1543v11.109l-1.2852 0.18945v0.46875l2.1621-0.03516 2.0273 0.03516v-0.46875l-1.2539-0.22461v-11.074l1.2363-0.1543v-0.50586l-2.043 0.05469-2.1289-0.05469zm5.4922 0-0.18945 3.2285h0.66992l0.17383-0.51953c0.3772-1.1461 0.94268-1.9953 2.3867-1.9785h1.1836v11.039l-1.2188 0.15625v0.50195l2.1113-0.05078 2.0449 0.05078 0.0156-0.50195-1.2871-0.15625v-11.039h1.082c1.4592-0.01671 2.0254 0.83245 2.3867 1.9785l0.17188 0.51953h0.65234l-0.1875-3.2285h-9.9961zm-24.51 0.71289h1.4766c2.3193-0.01671 3.0234 1.2322 3.0234 2.377 0 1.267-0.73783 2.7611-3.3828 2.709h-1.1172v-5.0859z" transform="matrix(.8 0 0 -.8 251.86 204.52)" stroke="#003763" stroke-width=".19932" fill="#003763"/><path d="m18.215 60.887c-0.89442 0-1.6074 0.96582-1.6074 2.5449 0 0.74845 0.41478 1.7383 1.4473 1.7383 0.83036 0 1.4062-0.61251 1.4062-1.4258 0-0.65356-0.40465-1.1719-1.1016-1.1719-0.36729 0-0.7368 0.22825-0.8418 0.69336l-0.05859-0.0098c0.0218-1.2724 0.28183-2.0625 0.96289-2.0625 0.13344 0 0.23506 0.0117 0.32031 0.06445-0.0475 0.16038-0.1007 0.28283-0.0957 0.42383 0.02642 0.1938 0.16841 0.33398 0.31836 0.33398 0.18034 0 0.33008-0.13397 0.33008-0.39258 0.0053-0.419-0.436-0.73633-1.0801-0.73633zm-4.1973 0.0059c-0.79336 0-1.2891 0.51169-1.2891 1.1191 0 0.47781 0.33113 0.81668 0.70898 1.0586l0.01953 0.13672c-0.49544 0.15904-0.84375 0.50621-0.84375 0.97266 0 0.54864 0.56393 1.002 1.457 1.002 0.85613 0 1.3984-0.54088 1.3984-1.1777 0-0.54262-0.43999-0.91403-0.89844-1.168l-0.01562-0.08789c0.43599-0.15304 0.75586-0.46632 0.75586-0.91406 0-0.51856-0.49499-0.94141-1.293-0.94141zm-3.0664 0.02734-0.41406 0.01367c-0.15458 0.28401-0.49002 0.40059-0.82031 0.41797l-0.00586 0.28125h0.48437v3.2129l-0.48047 0.06445v0.24024l0.72461-0.0098 0.98438 0.0098v-0.24024l-0.47266-0.07813v-3.9121zm9.6172 0.01367-0.07422 0.9082 0.16016 0.0039c0.05813-0.14098 0.15273-0.2168 0.30664-0.2168h1.5234l0.0098 0.11524c-0.84026 1.1574-1.166 2.0575-1.166 2.9844 0 0.30472 0.13969 0.44726 0.38477 0.44726 0.22929 0 0.33008-0.14254 0.33008-0.44726 0-1.0558 0.15977-2.2764 1.043-3.502v-0.29297h-2.5176zm-6.5508 0.23633c0.49544 0 0.66992 0.30967 0.66992 0.72266 0 0.33546-0.10128 0.64975-0.3457 0.82617-0.06931-0.03413-0.13266-0.05852-0.19141-0.08789-0.31972-0.13632-0.69336-0.37854-0.69336-0.79688 0-0.37556 0.14504-0.66406 0.56055-0.66406zm4.0703 1.8027c0.40494 0 0.5625 0.34676 0.5625 0.91211 0 0.57871-0.11744 0.97266-0.50586 0.97266-0.56946 0-0.66905-0.70279-0.68555-1.2969 0.10106-0.38826 0.35674-0.58789 0.62891-0.58789zm-4.3535 0.26367c0.06936 0.03612 0.13766 0.06509 0.20703 0.08984 0.36662 0.14568 0.79297 0.40444 0.79297 0.85352 0 0.41699-0.16928 0.73633-0.66406 0.73633-0.61236 0-0.83008-0.34184-0.83008-0.79492 0-0.35951 0.14338-0.71235 0.49414-0.88477z" transform="matrix(.8 0 0 -.8 251.86 204.52)" fill="#e31841"/></g></g></svg>
